HIERARCHY
ROOT hip
{
	OFFSET 0.000000 0.000000 0.000000
	CHANNELS 6 Xposition Yposition Zposition Zrotation Yrotation Xrotation 
	JOINT lhipjoint
	{
		OFFSET 0.000000 0.000000 0.000000
		CHANNELS 3 Zrotation Yrotation Xrotation
		JOINT lfemur
		{
			OFFSET 1.363060 -1.794630 0.839290
			CHANNELS 3 Zrotation Yrotation Xrotation
			JOINT ltibia
			{
				OFFSET 2.448110 -6.726130 0.000000
				CHANNELS 3 Zrotation Yrotation Xrotation
				JOINT lfoot
				{
					OFFSET 2.562200 -7.039590 0.000000
					CHANNELS 3 Zrotation Yrotation Xrotation
					JOINT ltoes
					{
						OFFSET 0.157640 -0.433110 2.322550
						CHANNELS 3 Zrotation Yrotation Xrotation
						End Site
						{
							OFFSET 0.000000 0.000000 0.000000
						}
					}
				}
			}
		}
	}
	JOINT rhipjoint
	{
		OFFSET 0.000000 0.000000 0.000000
		CHANNELS 3 Zrotation Yrotation Xrotation
		JOINT rfemur
		{
			OFFSET -1.305520 -1.794630 0.839290
			CHANNELS 3 Zrotation Yrotation Xrotation
			JOINT rtibia
			{
				OFFSET -2.542530 -6.985550 0.000000
				CHANNELS 3 Zrotation Yrotation Xrotation
				JOINT rfoot
				{
					OFFSET -2.568260 -7.056230 0.000000
					CHANNELS 3 Zrotation Yrotation Xrotation
					JOINT rtoes
					{
						OFFSET -0.164730 -0.452590 2.363150
						CHANNELS 3 Zrotation Yrotation Xrotation
						End Site
						{
							OFFSET 0.000000 0.000000 0.000000
						}
					}
				}
			}
		}
	}
	JOINT lowerback
	{
		OFFSET 0.000000 0.000000 0.000000
		CHANNELS 3 Zrotation Yrotation Xrotation
		JOINT upperback
		{
			OFFSET 0.028270 2.035590 -0.193380
			CHANNELS 3 Zrotation Yrotation Xrotation
			JOINT thorax
			{
				OFFSET 0.056720 2.048850 -0.042750
				CHANNELS 3 Zrotation Yrotation Xrotation
				JOINT lowerneck
				{
					OFFSET 0.000000 0.000000 0.000000
					CHANNELS 3 Zrotation Yrotation Xrotation
					JOINT upperneck
					{
						OFFSET -0.054170 1.746240 0.172020
						CHANNELS 3 Zrotation Yrotation Xrotation
						JOINT head
						{
							OFFSET 0.104070 1.761360 -0.123970
							CHANNELS 3 Zrotation Yrotation Xrotation
							End Site
							{
								OFFSET 0.000000 0.000000 0.000000
							}
						}
					}
				}
				JOINT lclavicle
				{
					OFFSET 0.000000 0.000000 0.000000
					CHANNELS 3 Zrotation Yrotation Xrotation
					JOINT lhumerus
					{
						OFFSET 3.362410 1.200890 -0.311210
						CHANNELS 3 Zrotation Yrotation Xrotation
						JOINT lradius
						{
							OFFSET 4.983000 -0.000000 -0.000000
							CHANNELS 3 Zrotation Yrotation Xrotation
							JOINT lwrist
							{
								OFFSET 3.483560 -0.000000 -0.000000
								CHANNELS 3 Zrotation Yrotation Xrotation
								JOINT lhand
								{
									OFFSET 0.000000 0.000000 0.000000
									CHANNELS 3 Zrotation Yrotation Xrotation
									JOINT lfingers
									{
										OFFSET 0.715260 -0.000000 -0.000000
										CHANNELS 3 Zrotation Yrotation Xrotation
										End Site
										{
											OFFSET 0.000000 0.000000 0.000000
										}
									}
								}
								JOINT lthumb
								{
									OFFSET 0.000000 0.000000 0.000000
									CHANNELS 3 Zrotation Yrotation Xrotation
									End Site
									{
										OFFSET 0.000000 0.000000 0.000000
									}
								}
							}
						}
					}
				}
				JOINT rclavicle
				{
					OFFSET 0.000000 0.000000 0.000000
					CHANNELS 3 Zrotation Yrotation Xrotation
					JOINT rhumerus
					{
						OFFSET -3.136600 1.374050 -0.404650
						CHANNELS 3 Zrotation Yrotation Xrotation
						JOINT rradius
						{
							OFFSET -5.241900 -0.000000 -0.000000
							CHANNELS 3 Zrotation Yrotation Xrotation
							JOINT rwrist
							{
								OFFSET -3.444170 -0.000000 -0.000000
								CHANNELS 3 Zrotation Yrotation Xrotation
								JOINT rhand
								{
									OFFSET 0.000000 0.000000 0.000000
									CHANNELS 3 Zrotation Yrotation Xrotation
									JOINT rfingers
									{
										OFFSET -0.622530 -0.000000 -0.000000
										CHANNELS 3 Zrotation Yrotation Xrotation
										End Site
										{
											OFFSET 0.000000 0.000000 0.000000
										}
									}
								}
								JOINT rthumb
								{
									OFFSET 0.000000 0.000000 0.000000
									CHANNELS 3 Zrotation Yrotation Xrotation
									End Site
									{
										OFFSET 0.000000 0.000000 0.000000
									}
								}
							}
						}
					}
				}
			}
		}
	}
}
MOTION
Frames: 4
Frame Time: 0.008333
0.803719 18.106655 4.406188 -174.260287 -14.173923 163.019922 7.918660 8.002451 2.846985 -11.281241 0.213275 12.783613 3.041192 7.833577 34.268967 1.875787 -0.983461 23.751009 4.038600 -12.211700 -36.484900 -10.158219 -7.768010 0.607035 34.544492 3.463180 6.025315 -1.479672 -5.836452 24.241378 3.154052 -11.837759 10.088376 -0.014700 0.781500 -2.147800 3.368537 -2.455490 11.368389 1.154755 -3.207182 -0.790958 4.279073 -2.136191 3.303412 -10.374088 -6.430067 -5.026881 5.003669 -8.061260 4.299449 4.127300 -3.780400 1.597900 -2.283109 -1.427339 2.541726 -19.709007 6.595783 -13.757438 18.171161 -31.137201 -10.615062 0.146810 -2.489757 83.167143 10.200915 10.124231 1.394900 -7.125000 0.000000 0.000000 -16.814700 39.855500 2.204400 2.311578 1.792087 4.299917 23.259423 -8.779470 -37.909713 -33.640016 40.898223 -21.864970 -0.320045 1.210845 139.621014 -3.857325 -5.133805 0.231900 7.125000 0.000000 0.000000 18.867400 -33.505700 5.578000 
0.832350 18.112094 4.350568 -174.286015 -14.260150 162.832454 7.897487 7.986564 2.864866 -11.256686 -0.024728 11.965593 3.433742 8.347462 35.986868 1.836820 -0.473736 24.490989 3.916600 -12.048600 -35.904200 -10.140953 -7.767538 0.575563 34.551625 3.104721 6.495035 -1.437001 -5.729695 23.992808 3.148515 -11.759401 9.965742 -0.012200 0.712100 -1.956900 3.198920 -2.452198 11.368585 1.132156 -3.219533 -0.807741 4.461973 -2.145632 3.259929 -10.501750 -6.446284 -4.842329 4.913503 -8.069052 4.400284 4.167600 -3.793300 1.600900 -2.502744 -1.475422 2.583863 -16.706672 5.826316 -13.815040 17.812533 -30.382553 -10.507891 0.166742 -2.697706 81.385040 9.388540 10.482450 1.262200 -7.125000 0.000000 0.000000 -17.792700 40.205400 2.182700 2.505641 1.815787 4.345210 20.695160 -8.159982 -39.315660 -33.576745 40.611934 -22.178663 -0.368791 1.398341 139.252730 -3.384318 -5.468641 0.200200 7.125000 0.000000 0.000000 19.346300 -33.634600 5.670100 
0.859133 18.116609 4.295666 -174.301301 -14.346661 162.639049 7.877967 7.971664 2.880453 -11.226350 -0.251967 11.163568 3.839441 8.845963 37.670050 1.765734 0.177079 25.250625 3.751400 -11.822000 -35.105100 -10.123774 -7.766513 0.543175 34.551181 2.718970 6.975468 -1.390531 -5.615010 23.720222 3.138738 -11.671814 9.869283 -0.009600 0.632200 -1.737300 3.045252 -2.450441 11.369227 1.108266 -3.230574 -0.826604 4.655318 -2.152308 3.206079 -10.649112 -6.461203 -4.642163 4.828037 -8.075215 4.502638 4.223200 -3.805800 1.600700 -2.688035 -1.542476 2.639026 -13.755019 5.043959 -13.852804 17.472078 -29.624485 -10.386586 0.183540 -2.913605 79.839488 8.666505 10.902387 1.137800 -7.125000 0.000000 0.000000 -18.725300 40.621000 2.106200 2.672129 1.858424 4.394874 18.143843 -7.508486 -40.761483 -33.516240 40.321136 -22.497179 -0.418591 1.596883 139.048873 -2.945951 -5.851800 0.169000 7.125000 0.000000 0.000000 19.811000 -33.799900 5.736800 
0.885712 18.122458 4.241996 -174.344873 -14.434594 162.466651 7.860079 7.954548 2.889988 -11.224559 -0.463075 10.378907 4.247985 9.320059 39.291138 1.677690 0.907430 26.007426 3.545000 -11.529000 -34.085600 -10.105060 -7.763488 0.513287 34.532899 2.381242 7.450511 -1.342843 -5.499505 23.438558 3.141822 -11.623077 9.750963 -0.007900 0.575700 -1.581900 2.857585 -2.448702 11.363016 1.082289 -3.246758 -0.845998 4.839254 -2.160240 3.160734 -10.760690 -6.466455 -4.461374 4.736927 -8.073314 4.608027 4.258900 -3.815200 1.596800 -2.821882 -1.628917 2.703677 -10.943793 4.251424 -14.208545 17.210392 -28.923205 -10.308750 0.203480 -3.130564 78.874987 8.079266 11.245544 1.015900 -7.125000 0.000000 0.000000 -19.523700 40.947700 2.039200 2.811999 1.917818 4.446136 15.617442 -6.804768 -42.227310 -33.475156 40.039492 -22.828884 -0.471306 1.806414 138.982679 -2.498659 -6.216073 0.132300 7.125000 0.000000 0.000000 20.278400 -33.934700 5.816900 
